<svg width="349" height="68" viewBox="0 0 349 68" fill="none" xmlns="http://www.w3.org/2000/svg">
<g filter="url(#filter0_d_47_1561)">
<rect x="6" y="4" width="335" height="54" rx="10" fill="#FEE500" shape-rendering="crispEdges"/>
<path d="M121.5 22C127 22 131.5 25.58 131.5 30C131.5 34.42 127 38 121.5 38C120.292 38 119.131 37.8291 118.054 37.5242C118 37.509 117.943 37.5164 117.895 37.5453L113.415 40.2495C113.262 40.3418 113.074 40.2034 113.117 40.0303C113.546 38.3154 114.088 36.148 114.22 35.6199C114.239 35.5458 114.213 35.4689 114.155 35.4189C112.511 33.997 111.5 32.09 111.5 30C111.5 25.58 116 22 121.5 22Z" fill="black" fill-opacity="0.9"/>
<path d="M156.579 22.956V29.292H158.991V30.75H156.579V38.364H154.797V22.956H156.579ZM152.331 25.782C152.331 27.246 151.983 28.554 151.287 29.706C150.603 30.858 149.703 31.818 148.587 32.586C147.471 33.342 146.271 33.9 144.987 34.26L144.519 32.64C145.587 32.34 146.553 31.914 147.417 31.362C148.293 30.81 149.001 30.144 149.541 29.364H144.951V27.87H150.297C150.525 27.21 150.639 26.514 150.639 25.782H144.951V24.324H152.331V25.782ZM171.473 22.956V29.292H173.885V30.75H171.473V38.364H169.691V22.956H171.473ZM167.225 25.782C167.225 27.246 166.877 28.554 166.181 29.706C165.497 30.858 164.597 31.818 163.481 32.586C162.365 33.342 161.165 33.9 159.881 34.26L159.413 32.64C160.481 32.34 161.447 31.914 162.311 31.362C163.187 30.81 163.895 30.144 164.435 29.364H159.845V27.87H165.191C165.419 27.21 165.533 26.514 165.533 25.782H159.845V24.324H167.225V25.782ZM180.336 34.944V32.73C179.172 32.55 178.23 32.052 177.51 31.236C176.802 30.42 176.448 29.424 176.448 28.248C176.448 27.372 176.646 26.592 177.042 25.908C177.45 25.212 178.014 24.672 178.734 24.288C179.454 23.892 180.276 23.694 181.2 23.694C182.136 23.694 182.97 23.892 183.702 24.288C184.434 24.672 185.004 25.212 185.412 25.908C185.82 26.592 186.024 27.372 186.024 28.248C186.024 29.436 185.664 30.438 184.944 31.254C184.236 32.058 183.288 32.544 182.1 32.712V34.944H188.454V36.384H174.018V34.944H180.336ZM178.176 28.248C178.176 29.148 178.452 29.886 179.004 30.462C179.568 31.026 180.3 31.308 181.2 31.308C182.124 31.308 182.868 31.026 183.432 30.462C184.008 29.886 184.296 29.148 184.296 28.248C184.296 27.348 184.008 26.61 183.432 26.034C182.868 25.458 182.124 25.17 181.2 25.17C180.3 25.17 179.568 25.458 179.004 26.034C178.452 26.61 178.176 27.348 178.176 28.248ZM198.838 35.016V32.604H194.77V27.51H203.122V25.44H194.734V24.018H204.742V28.896H196.39V31.182H205.102V32.604H200.602V35.016H206.956V36.456H192.52V35.016H198.838ZM221.832 34.674V36.132H207.414V34.674H221.832ZM219.384 32.712H217.584V25.8H209.34V24.342H219.384V32.712ZM235.429 22.992V33.792H233.647V22.992H235.429ZM227.239 33.324V37.14H235.555V38.58H225.475V33.324H227.239ZM226.825 31.434C226.033 31.434 225.325 31.272 224.701 30.948C224.089 30.612 223.609 30.15 223.261 29.562C222.925 28.974 222.757 28.308 222.757 27.564C222.757 26.808 222.925 26.136 223.261 25.548C223.609 24.96 224.089 24.504 224.701 24.18C225.325 23.844 226.033 23.676 226.825 23.676C227.605 23.676 228.301 23.844 228.913 24.18C229.525 24.504 229.999 24.96 230.335 25.548C230.683 26.136 230.857 26.808 230.857 27.564C230.857 28.308 230.683 28.974 230.335 29.562C229.999 30.15 229.525 30.612 228.913 30.948C228.301 31.272 227.605 31.434 226.825 31.434ZM226.825 29.976C227.509 29.976 228.061 29.754 228.481 29.31C228.913 28.866 229.129 28.284 229.129 27.564C229.129 26.832 228.913 26.244 228.481 25.8C228.061 25.356 227.509 25.134 226.825 25.134C226.129 25.134 225.565 25.356 225.133 25.8C224.713 26.244 224.503 26.832 224.503 27.564C224.503 28.284 224.713 28.866 225.133 29.31C225.565 29.754 226.129 29.976 226.825 29.976Z" fill="black" fill-opacity="0.9"/>
</g>
<defs>
<filter id="filter0_d_47_1561" x="0" y="0" width="349" height="68" filterUnits="userSpaceOnUse" color-interpolation-filters="sRGB">
<feFlood flood-opacity="0" result="BackgroundImageFix"/>
<feColorMatrix in="SourceAlpha" type="matrix" values="0 0 0 0 0 0 0 0 0 0 0 0 0 0 0 0 0 0 127 0" result="hardAlpha"/>
<feOffset dx="1" dy="3"/>
<feGaussianBlur stdDeviation="3.5"/>
<feComposite in2="hardAlpha" operator="out"/>
<feColorMatrix type="matrix" values="0 0 0 0 0 0 0 0 0 0 0 0 0 0 0 0 0 0 0.1 0"/>
<feBlend mode="normal" in2="BackgroundImageFix" result="effect1_dropShadow_47_1561"/>
<feBlend mode="normal" in="SourceGraphic" in2="effect1_dropShadow_47_1561" result="shape"/>
</filter>
</defs>
</svg>
