<svg width="24" height="24" viewBox="0 0 24 24" fill="none" xmlns="http://www.w3.org/2000/svg">
<path d="M3 9.10704C3 9.04017 3.03342 8.97772 3.08906 8.94063L10.8906 3.7396C11.5624 3.29173 12.4376 3.29173 13.1094 3.7396L20.9109 8.94063C20.9666 8.97772 21 9.04017 21 9.10704V19C21 20.1046 20.1046 21 19 21H5C3.89543 21 3 20.1046 3 19V9.10704Z" fill="#D6DAED"/>
<rect x="5" y="3" width="14" height="14" rx="1" fill="#212948"/>
<mask id="mask0_199_1403" style="mask-type:alpha" maskUnits="userSpaceOnUse" x="3" y="3" width="18" height="18">
<path d="M11.168 4.15527C11.6717 3.81953 12.3283 3.81953 12.832 4.15527L20.5 9.2666V19C20.5 19.8284 19.8284 20.5 19 20.5H5C4.17157 20.5 3.5 19.8284 3.5 19V9.2666L11.168 4.15527Z" fill="#6E7FFF" stroke="#A9B3FF"/>
</mask>
<g mask="url(#mask0_199_1403)">
<path d="M13 15.9999L20.6683 9.29011C20.7976 9.17696 21 9.26879 21 9.44062V20.9999H17L13 15.9999Z" fill="#212948"/>
<path d="M21 9.44055C20.9997 9.26893 20.7972 9.17708 20.668 9.29016L13 16.0001L17 21.0001H21V9.44055ZM21.2002 21.2003H16.9043L16.8438 21.1251L12.8438 16.1251L12.7246 15.9757L12.8682 15.8497L20.5361 9.13977C20.7947 8.91354 21.1999 9.0971 21.2002 9.44055V21.2003Z" fill="#D6DAED"/>
<path d="M11 15.9999L3.3317 9.29011C3.20238 9.17696 3 9.26879 3 9.44062V20.9999H7L11 15.9999Z" fill="#212948"/>
<path d="M3 9.44055C3.00025 9.26893 3.2028 9.17708 3.33203 9.29016L11 16.0001L7 21.0001H3V9.44055ZM2.7998 21.2003H7.0957L7.15625 21.1251L11.1562 16.1251L11.2754 15.9757L11.1318 15.8497L3.46387 9.13977C3.20531 8.91354 2.80006 9.0971 2.7998 9.44055V21.2003Z" fill="#D6DAED"/>
<path d="M21 21H3L9.42448 15.0344C9.79441 14.6909 10.2806 14.5 10.7854 14.5H13.2146C13.7194 14.5 14.2056 14.6909 14.5755 15.0344L21 21Z" fill="#212948"/>
<path d="M13.6074 14.4004C13.885 14.4004 14.152 14.5054 14.3555 14.6943L21.0684 20.9268L20.9316 21.0732L14.2197 14.8408C14.0533 14.6863 13.8346 14.5996 13.6074 14.5996H10.3926C10.1654 14.5996 9.94671 14.6863 9.78027 14.8408L3.06836 21.0732L2.93164 20.9268L9.64453 14.6943C9.84797 14.5054 10.115 14.4004 10.3926 14.4004H13.6074Z" fill="#D6DAED"/>
</g>
<circle cx="9" cy="8.75" r="0.75" fill="#D6DAED"/>
<circle cx="12" cy="8.75" r="0.75" fill="#D6DAED"/>
<circle cx="15" cy="8.75" r="0.75" fill="#D6DAED"/>
</svg>
