<svg width="24" height="24" viewBox="0 0 24 24" fill="none" xmlns="http://www.w3.org/2000/svg">
<rect x="3" y="3" width="18" height="18" rx="2" fill="#212948"/>
<rect x="4" y="12" width="16" height="1.5" rx="0.75" fill="#D6DAED"/>
<rect x="10" y="16" width="10" height="1.5" rx="0.75" fill="#D6DAED"/>
<path d="M9.42374 5.51961C9.68894 5.20158 10.1622 5.15879 10.4804 5.42391C10.7984 5.68911 10.8412 6.1624 10.5761 6.48055L8.07608 9.48055C7.93359 9.65142 7.72241 9.75008 7.49991 9.75008C7.27741 9.75008 7.06623 9.65142 6.92374 9.48055L5.42374 7.67977C5.15889 7.36166 5.20158 6.88925 5.51944 6.6241C5.83762 6.35895 6.31089 6.40167 6.57608 6.71981L7.49893 7.8282L9.42374 5.51961Z" fill="#D6DAED"/>
</svg>
