<svg width="30" height="20" viewBox="0 0 30 20" fill="none" xmlns="http://www.w3.org/2000/svg">
<path d="M28.9518 3.12324C28.6111 1.89323 27.6105 0.926623 26.3375 0.597366C24.0324 1.78814e-07 14.785 0 14.785 0C14.785 0 5.53769 1.78814e-07 3.23255 0.597366C1.9595 0.926623 0.959056 1.89323 0.618275 3.12324C1.78814e-07 5.35042 0 10 0 10C0 10 1.78814e-07 14.6496 0.618275 16.8768C0.959056 18.1068 1.9595 19.0734 3.23255 19.4026C5.53769 20 14.785 20 14.785 20C14.785 20 24.0324 20 26.3375 19.4026C27.6105 19.0734 28.6111 18.1068 28.9518 16.8768C29.5701 14.6496 29.5701 10 29.5701 10C29.5701 10 29.5676 5.35042 28.9518 3.12324Z" fill="#FF0000"/>
<path d="M11.8252 14.2854L19.5074 10.0004L11.8252 5.71533V14.2854Z" fill="white"/>
</svg>
