<svg width="27" height="15" viewBox="0 0 27 15" fill="none" xmlns="http://www.w3.org/2000/svg">
<path d="M24.0481 3.84293C24.2134 3.90306 24.3913 3.90829 24.5693 3.87025M24.5693 3.87025C25.5673 3.65696 26.4402 2.23287 25.3889 1.19815C24.5693 0.391372 23.6053 0.547299 22.8647 1.02807C22.2022 1.45814 22.2716 2.31196 21.7212 1.98962C20.3699 1.19815 17.3648 1.57893 16.6796 1.85838C16.3297 2.00109 16.2679 1.07801 15.6921 0.623802C15.1403 0.18858 14.1118 0.166577 13.4181 0.714752C11.8069 1.98812 13.2882 3.6126 14.1458 3.43068M24.5693 3.87025C25.3929 5.00737 26.7359 8.0915 25.091 11.1055C23.5162 13.9912 20.3335 14.3557 18.8922 14.2694C16.9503 14.153 15.4501 13.5164 14.6272 12.6788C13.677 11.7116 13.3674 10.7384 13.0788 10.7518C12.8039 10.7645 12.4476 11.8976 11.3236 12.8874C10.2459 13.8364 8.44969 14.7068 5.88264 14.4491C2.69921 14.1297 0.614091 11.1094 0.343184 8.73348C0.100242 6.60286 0.79898 3.26265 4.25283 2.15622M14.1458 3.43068C14.6365 3.3266 15.3023 2.87195 15.3023 2.87195M14.1458 3.43068C13.8334 3.86449 13.1827 4.80813 13.0788 5.11219M13.0788 5.15854C12.4176 4.12029 10.6186 1.98817 8.71263 1.76569M9.53733 3.43068C9.53733 3.43068 12.5416 4.8421 12.4004 8.00763C12.2743 10.8369 9.74825 13.2909 6.91619 13.2902C3.98926 13.2896 1.49245 10.8136 1.49245 7.88666C1.49245 4.76145 4.25283 3.43068 4.25283 3.43068M13.7312 8.26974C13.6315 5.31432 16.2382 3.00293 19.1952 3.02747C22.127 3.0518 24.6682 5.33956 24.5693 8.26974C24.4735 11.1081 22.0351 13.1458 19.1952 13.1693C16.3292 13.1929 13.8277 11.1342 13.7312 8.26974Z" stroke="white" stroke-width="0.6" stroke-linecap="round"/>
<path d="M16.388 7.37684C16.3709 6.94298 16.6016 6.47055 17.0358 6.47328C17.4496 6.47588 17.6712 6.88881 17.6964 7.30186C17.7225 7.73164 17.5219 8.19993 17.092 8.22401C16.6625 8.24807 16.4048 7.80667 16.388 7.37684Z" fill="white" stroke="white" stroke-width="0.6"/>
<path d="M20.5813 7.45106C20.5643 7.0172 20.795 6.54477 21.2292 6.5475C21.643 6.5501 21.8646 6.96303 21.8897 7.37608C21.9159 7.80586 21.7152 8.27415 21.2853 8.29823C20.8558 8.32229 20.5982 7.88089 20.5813 7.45106Z" fill="white" stroke="white" stroke-width="0.6"/>
<path d="M9.29061 3.8794C9.88394 2.64948 8.11824 2.3135 8.22637 2.08587C8.46164 1.59056 8.90354 1.06143 8.61335 0.873722C8.32316 0.686013 7.67321 1.27928 6.25491 1.19358C4.15732 1.06684 3.92317 3.02414 4.78901 3.8794C5.68231 4.76178 8.72016 5.06189 9.29061 3.8794Z" stroke="white" stroke-width="0.6" stroke-linecap="round"/>
<path d="M4.07247 7.39616C4.03472 6.98323 4.22621 6.51559 4.64053 6.49911C5.03655 6.48337 5.26149 6.87723 5.29845 7.27183C5.33655 7.67864 5.16725 8.13401 4.76016 8.16898C4.35765 8.20356 4.10924 7.79848 4.07247 7.39616Z" fill="white" stroke="white" stroke-width="0.6" stroke-linecap="round"/>
<path d="M8.44566 7.20659C8.40792 6.79365 8.5994 6.32601 9.01372 6.30954C9.40974 6.29379 9.63468 6.68765 9.67164 7.08226C9.70974 7.48906 9.54044 7.94443 9.13335 7.9794C8.73084 8.01398 8.48243 7.6089 8.44566 7.20659Z" fill="white" stroke="white" stroke-width="0.6" stroke-linecap="round"/>
<path d="M6.24032 9.02096C6.49759 9.18974 7.119 9.37888 7.66521 8.96328M5.56244 9.17623C5.54807 8.49719 6.25853 8.27767 6.93626 8.23302C7.60637 8.18888 8.39587 8.35294 8.46476 9.02096C8.53384 9.69074 7.83788 9.96821 7.16864 10.0423C6.46033 10.1207 5.57752 9.88871 5.56244 9.17623Z" stroke="white" stroke-width="0.3" stroke-linecap="round"/>
<path d="M16.2744 5.22485C16.4675 5.06918 16.7852 4.81352 17.3335 4.85663M20.8414 4.9319C21.0594 4.91529 21.5741 4.95807 21.8881 5.26213" stroke="white" stroke-width="0.5" stroke-linecap="round"/>
<path d="M18.1427 9.23665C18.2452 9.49721 18.7501 9.67165 19.1314 9.3463M19.1314 9.3463C19.375 9.52061 19.8998 9.69095 20.1456 9.23665M19.1314 9.3463V8.84314" stroke="white" stroke-width="0.3" stroke-linecap="round"/>
<path d="M19.1165 8.78921C19.1165 8.78921 18.5743 8.58269 18.5993 8.29751C18.5993 8.05127 19.5458 8.05219 19.6413 8.26133C19.7304 8.58606 19.1165 8.78921 19.1165 8.78921Z" fill="white" stroke="white" stroke-width="0.2" stroke-linecap="round"/>
</svg>
