<svg width="70" height="70" viewBox="0 0 70 70" fill="none" xmlns="http://www.w3.org/2000/svg">
<g filter="url(#filter0_d_327_2067)">
<rect x="10" y="6" width="50" height="50" rx="12" fill="#E30084"/>
<path d="M54.0805 24.8135C54.3683 24.9182 54.6779 24.9273 54.9876 24.8611M54.9876 24.8611C56.7246 24.4898 58.2438 22.0113 56.4142 20.2104C54.9876 18.8063 53.3099 19.0777 52.0209 19.9144C50.8678 20.6629 50.9886 22.149 50.0308 21.5879C47.6788 20.2104 42.4486 20.8731 41.2561 21.3595C40.6471 21.6079 40.5396 20.0013 39.5374 19.2108C38.5771 18.4533 36.7869 18.415 35.5797 19.3691C32.7755 21.5853 35.3536 24.4126 36.8462 24.096M54.9876 24.8611C56.4211 26.8401 58.7584 32.2079 55.8956 37.4536C53.1547 42.4759 47.6155 43.1104 45.107 42.9601C41.7272 42.7576 39.1163 41.6495 37.684 40.1918C36.0302 38.5084 35.4914 36.8147 34.9892 36.838C34.5107 36.8602 33.8905 38.8322 31.9343 40.5549C30.0587 42.2066 26.9324 43.7214 22.4647 43.273C16.9241 42.7169 13.2951 37.4603 12.8236 33.3252C12.4007 29.617 13.6168 23.8036 19.6281 21.8779M36.8462 24.096C37.7001 23.9149 38.8589 23.1236 38.8589 23.1236M36.8462 24.096C36.3025 24.851 35.1699 26.4934 34.9892 27.0226M34.9892 27.1032C33.8383 25.2962 30.7072 21.5854 27.3901 21.1982M28.8254 24.096C28.8254 24.096 34.0541 26.5525 33.8084 32.0619C33.5889 36.9861 29.1925 41.2571 24.2635 41.256C19.1693 41.2548 14.8238 36.9455 14.8238 31.8514C14.8238 26.4121 19.6281 24.096 19.6281 24.096M36.1245 32.5181C35.9511 27.3744 40.4879 23.3515 45.6344 23.3942C50.7369 23.4366 55.1598 27.4183 54.9876 32.5181C54.8209 37.4581 50.5771 41.0046 45.6344 41.0454C40.6463 41.0866 36.2926 37.5035 36.1245 32.5181Z" stroke="white" stroke-linecap="round"/>
<path d="M40.7485 30.964C40.7189 30.2089 41.1204 29.3866 41.8761 29.3914C42.5963 29.3959 42.982 30.1146 43.0257 30.8335C43.0712 31.5815 42.722 32.3965 41.9738 32.4384C41.2263 32.4803 40.7779 31.7121 40.7485 30.964Z" fill="white" stroke="white"/>
<path d="M48.0468 31.0931C48.0172 30.338 48.4187 29.5158 49.1744 29.5205C49.8946 29.5251 50.2802 30.2437 50.324 30.9626C50.3695 31.7106 50.0203 32.5257 49.2721 32.5676C48.5246 32.6094 48.0762 31.8412 48.0468 31.0931Z" fill="white" stroke="white"/>
<path d="M28.396 24.877C29.4287 22.7364 26.3556 22.1517 26.5438 21.7555C26.9532 20.8934 27.7223 19.9725 27.2173 19.6458C26.7122 19.3191 25.581 20.3517 23.1125 20.2025C19.4618 19.9819 19.0543 23.3885 20.5612 24.877C22.116 26.4127 27.4032 26.9351 28.396 24.877Z" stroke="white" stroke-linecap="round"/>
<path d="M19.3141 30.9976C19.2485 30.2789 19.5817 29.465 20.3028 29.4363C20.9921 29.4089 21.3836 30.0944 21.4479 30.7812C21.5142 31.4892 21.2195 32.2818 20.511 32.3426C19.8105 32.4028 19.3781 31.6978 19.3141 30.9976Z" fill="white" stroke="white" stroke-linecap="round"/>
<path d="M26.9254 30.6676C26.8597 29.949 27.193 29.1351 27.9141 29.1064C28.6033 29.079 28.9948 29.7645 29.0592 30.4513C29.1255 31.1593 28.8308 31.9518 28.1223 32.0127C27.4218 32.0729 26.9894 31.3679 26.9254 30.6676Z" fill="white" stroke="white" stroke-linecap="round"/>
<path d="M24.2984 32.454C23.1189 32.5318 21.8823 32.9138 21.9074 34.0957C21.9336 35.3357 23.4701 35.7395 24.7028 35.603C25.8676 35.474 27.0789 34.9911 26.9587 33.8254C26.8388 32.6628 25.4647 32.3772 24.2984 32.454Z" fill="white"/>
<path d="M23.0872 33.8254C23.5349 34.1192 24.6165 34.4483 25.5671 33.725M21.9074 34.0957C21.8823 32.9138 23.1189 32.5318 24.2984 32.454C25.4647 32.3772 26.8388 32.6628 26.9587 33.8254C27.0789 34.9911 25.8676 35.474 24.7028 35.603C23.4701 35.7395 21.9336 35.3357 21.9074 34.0957Z" stroke="white" stroke-width="0.5" stroke-linecap="round"/>
<path d="M40.5508 27.2186C40.887 26.9477 41.4398 26.5027 42.3941 26.5777M48.4994 26.7087C48.8789 26.6798 49.7747 26.7543 50.3212 27.2835" stroke="white" stroke-width="0.7" stroke-linecap="round"/>
<path d="M43.8026 34.201C43.981 34.6545 44.8596 34.9581 45.5234 34.3918M45.5234 34.3918C45.9474 34.6952 46.8607 34.9917 47.2885 34.201M45.5234 34.3918V33.5161" stroke="white" stroke-width="0.7" stroke-linecap="round"/>
<path d="M45.4974 33.4221C45.4974 33.4221 44.5538 33.0627 44.5972 32.5663C44.5972 32.1378 46.2445 32.1394 46.4108 32.5034C46.5658 33.0685 45.4974 33.4221 45.4974 33.4221Z" fill="white" stroke="white" stroke-width="0.4" stroke-linecap="round"/>
</g>
<defs>
<filter id="filter0_d_327_2067" x="0" y="0" width="70" height="70" filterUnits="userSpaceOnUse" color-interpolation-filters="sRGB">
<feFlood flood-opacity="0" result="BackgroundImageFix"/>
<feColorMatrix in="SourceAlpha" type="matrix" values="0 0 0 0 0 0 0 0 0 0 0 0 0 0 0 0 0 0 127 0" result="hardAlpha"/>
<feOffset dy="4"/>
<feGaussianBlur stdDeviation="5"/>
<feComposite in2="hardAlpha" operator="out"/>
<feColorMatrix type="matrix" values="0 0 0 0 0 0 0 0 0 0 0 0 0 0 0 0 0 0 0.1 0"/>
<feBlend mode="normal" in2="BackgroundImageFix" result="effect1_dropShadow_327_2067"/>
<feBlend mode="normal" in="SourceGraphic" in2="effect1_dropShadow_327_2067" result="shape"/>
</filter>
</defs>
</svg>
